<?xml version="1.0" encoding="UTF-8"?>
<!-- Generator: Adobe Illustrator 19.0.0, SVG Export Plug-In . SVG Version: 6.00 Build 0)  -->
<svg id="Layer_1" enable-background="new 0 0 113.4 113.4" version="1.1" viewBox="0 0 113.4 113.4" xml:space="preserve" xmlns="http://www.w3.org/2000/svg">
<style type="text/css">
	.st0{fill:#F17172;}
	.st1{fill:#FFFFFF;}
</style>
<rect id="XMLID_3352_" class="st0" width="113.4" height="113.4"/>
<g id="XMLID_3343_">
	<path id="XMLID_3349_" class="st1" d="m72.6 22.5c1.2 0.3 2.3 0.7 3.3 1.6 1.4 1.3 2.1 2.9 2.2 4.8v16.8 0.4h-42.5v-0.8-16.1c0-3.5 1.8-5.8 5.3-6.6 0.1 0 0.1-0.1 0.2-0.1h31.5zm-24.6 13.8v-3.1c0-1.3-0.9-2.2-2-2.2s-1.9 0.9-1.9 2.2v6.1c0 1.3 0.8 2.2 2 2.2s2-0.9 2-2.2c-0.1-1-0.1-2-0.1-3z"/>
	<path id="XMLID_3348_" class="st1" d="m41.2 90.8c-1.2-0.5-1.6-1.3-1.5-2.6v-1.8c0.7 0 1.4 0.1 2 0.1h1.9c0.2 2.8 0.2 3.5-1.5 4.3h-0.9z"/>
	<path id="XMLID_3347_" class="st1" d="m71.2 90.8c-1.2-0.5-1.6-1.3-1.5-2.6v-1.8h3.9c0.6 2 0.1 3.5-1.4 4.3-0.3 0.1-0.7 0.1-1 0.1z"/>
	<path id="XMLID_3344_" class="st1" d="m35.4 50.2h42.6v0.7 24.9c0 4.1-2.7 6.7-6.7 6.7h-29.3c-3.2 0-5.7-1.9-6.4-4.9-0.1-0.5-0.2-1.1-0.2-1.7v-25.1-0.6zm8.6 12.9v6.3c0 1.3 0.8 2.2 2 2.2s2-0.9 2-2.2v-12.5c0-0.4-0.1-0.8-0.3-1.1-0.4-0.8-1.3-1.2-2.1-1-0.9 0.2-1.6 0.9-1.6 1.9v6.4z"/>
</g>
</svg>
