<?xml version="1.0" encoding="UTF-8"?>
<!-- Generator: Adobe Illustrator 19.0.0, SVG Export Plug-In . SVG Version: 6.00 Build 0)  -->
<svg id="Layer_1" enable-background="new 0 0 113.4 113.4" version="1.1" viewBox="0 0 113.4 113.4" xml:space="preserve" xmlns="http://www.w3.org/2000/svg">
<style type="text/css">
	.st0{fill:#B39FD5;}
	.st1{fill:#FFFFFF;}
</style>
<rect id="XMLID_4534_" class="st0" y=".1" width="113.3" height="113.3"/>
<g id="XMLID_4528_">
	<path id="XMLID_4533_" class="st1" d="m20.3 28.1c0.3-1.5 0.9-2.8 2.1-3.7 0.9-0.7 1.9-1.1 3-1.2h1.1 52.8c2 0 3.7 0.6 5 2.2 0.8 1.1 1.2 2.3 1.2 3.7v11.1 15.4 0.9h-5.1v-0.8-26.3c0-1.1 0-1.1-1.1-1.1h-52.6c-1.1 0-1.1 0-1.1 1.1v35.3c0 1.1 0 1.1 1.2 1.1h42.7 1v5.1h-8.5v7.4h2.6c1.6 0 2.7 1 2.8 2.5 0 1.5-1.1 2.6-2.8 2.6h-22.9c-1.7 0-2.8-1.1-2.8-2.6s1.1-2.5 2.8-2.5h1.8 0.7v-7.3h-0.8-16c-4.1 0-5.6-1.1-6.8-5-0.3-12.7-0.3-25.3-0.3-37.9z"/>
	<path id="XMLID_4529_" class="st1" d="m93 88.2c-0.5 1.2-1.1 2.1-2.4 2.5-0.4 0.1-0.8 0.1-1.2 0.1h-12.3c-2.3 0-3.6-1.3-3.6-3.6v-23.9c0-2.3 1.3-3.6 3.6-3.6h12.4c1.9 0 3 0.9 3.6 2.7-0.1 8.6-0.1 17.2-0.1 25.8zm-15.6-24.7v21.3h11.7v-21.3h-11.7zm7.3 24.1c0-0.8-0.6-1.4-1.4-1.4-0.7 0-1.4 0.6-1.4 1.4 0 0.7 0.6 1.4 1.4 1.4 0.7 0 1.4-0.6 1.4-1.4z"/>
</g>
</svg>
