<?xml version="1.0" encoding="UTF-8"?>
<!-- Generator: Adobe Illustrator 19.0.0, SVG Export Plug-In . SVG Version: 6.00 Build 0)  -->
<svg id="Layer_1" enable-background="new 0 0 113.4 113.4" version="1.1" viewBox="0 0 113.4 113.4" xml:space="preserve" xmlns="http://www.w3.org/2000/svg">
<style type="text/css">
	.st0{fill:#44C6C6;}
	.st1{fill:#FFFFFF;}
</style>
<rect id="XMLID_4527_" class="st0" width="113.4" height="113.4"/>
<g id="XMLID_3377_">
	<path id="XMLID_4526_" class="st1" d="m65.8 20.4 2.1 0.6c2.8 1.2 4.6 3.2 5.2 6.2 1.4 6.9 2.7 13.7 3.9 20.6 0.9 5-3.1 9.7-8.2 9.8-7.1 0.1-14.3 0-21.5 0-1.6 0-3.2 0-4.8-0.3-4.2-1-7-5.4-6.2-9.7 1.3-6.7 2.5-13.4 3.9-20.1 0.7-3.8 3.2-6.2 7-7 0.1 0 0.2-0.1 0.3-0.1h18.3z"/>
	<path id="XMLID_4525_" class="st1" d="m39.6 94.9c-0.4-0.3-1-0.4-1.3-0.8-0.4-0.5-1-1.1-1-1.7-0.1-1.7-0.2-3.5 0.1-5.1 0.5-2.8 2.9-4.7 5.7-4.8 3.1-0.1 6.3 0 9.4 0h1v-3.1h6.2v3.1h0.8 8.9c3.9 0 6.5 2.6 6.5 6.5v2.6c0 1.5-0.7 2.6-2.1 3.1-0.1 0-0.2 0.1-0.2 0.1h-1.5c-1.9-0.7-2.5-2.1-2.4-4.1 0.1-0.7 0-1.4 0-2.1h-26.4v3.1c0 1-0.4 1.7-1.1 2.3-0.4 0.3-0.8 0.5-1.2 0.7-0.5 0.2-0.9 0.2-1.4 0.2z"/>
	<path id="XMLID_4524_" class="st1" d="m56.5 76.3c-5.1 0-10.3-0.1-15.4 0-4 0.1-7.4-3-5.9-8 1.1-3.5 4.4-6 8.1-6h26.5c4.6 0 8.3 3.7 8.4 8.3 0.1 3.3-2.3 5.7-5.6 5.7h-16.1z"/>
</g>
</svg>
