<?xml version="1.0" encoding="UTF-8"?>
<!-- Generator: Adobe Illustrator 19.0.0, SVG Export Plug-In . SVG Version: 6.00 Build 0)  -->
<svg id="Layer_1" enable-background="new 0 0 113.4 113.4" version="1.1" viewBox="0 0 113.4 113.4" xml:space="preserve" xmlns="http://www.w3.org/2000/svg">
<style type="text/css">
	.st0{fill:#70C6E8;}
	.st1{fill:#FFFFFF;}
</style>
<rect id="XMLID_3342_" class="st0" width="113.4" height="113.4"/>
<g id="XMLID_3339_">
	<path id="XMLID_3341_" class="st1" d="m91.4 45.2v3.1c0 0.1-0.1 0.3-0.1 0.4-0.3 3.1-1.4 6-3 8.7-0.3 0.4-0.5 0.6-1 0.6h-15.7c-0.5 0-0.8-0.2-1-0.6-2.2-4-4.3-8.1-6.5-12.1-0.3-0.5-0.7-1-1.2-1.2-1-0.5-2.1 0-2.7 1.2-2.6 5.3-5.2 10.7-7.7 16.1-0.1 0.3-0.2 0.5-0.4 0.8-0.2-0.3-0.3-0.5-0.5-0.7-1.7-2.6-3.3-5.2-5-7.8-1-1.6-2.8-1.6-3.7 0-0.8 1.2-1.5 2.5-2.2 3.7-0.2 0.3-0.4 0.5-0.8 0.5h-13.9c-0.4 0-0.7-0.1-0.8-0.5-0.7-1.6-1.5-3.1-2.1-4.7-0.5-1.4-0.7-2.8-1-4.3v-3.3c0.1-0.6 0.2-1.2 0.3-1.9 2.4-13 17.2-21.6 30.3-14 1.4 0.8 2.7 1.8 4.1 2.8l1.5-1.2c4.3-3.2 9.1-4.9 14.6-4.4 8.5 0.8 15.8 7.1 17.9 15.4 0.2 1.2 0.4 2.3 0.6 3.4z"/>
	<path id="XMLID_3340_" class="st1" d="m28.6 62h0.9 11.7c1 0 1.8-0.4 2.3-1.3 0.4-0.8 0.9-1.5 1.4-2.3 1.9 3 3.8 5.9 5.6 8.9 0.4 0.6 0.8 1 1.4 1.2 1 0.2 1.9-0.2 2.4-1.3 1.4-3 2.9-6.1 4.3-9.1 1.2-2.5 2.4-5 3.6-7.6 0.2 0.3 0.3 0.5 0.4 0.7 1.7 3.2 3.4 6.3 5.1 9.5 0.5 1 1.3 1.5 2.4 1.4h13.7 0.9c-0.2 0.2-0.3 0.4-0.5 0.6-8.6 8.4-17.2 17-25.8 25.6-1.1 1.1-2.2 1.1-3.4 0-8.6-8.6-17.3-17.2-25.9-25.8l-0.5-0.5z"/>
</g>
</svg>
