<?xml version="1.0" encoding="UTF-8"?>
<!-- Generator: Adobe Illustrator 19.0.0, SVG Export Plug-In . SVG Version: 6.00 Build 0)  -->
<svg id="Layer_1" enable-background="new 0 0 113.4 113.4" version="1.1" viewBox="0 0 113.4 113.4" xml:space="preserve" xmlns="http://www.w3.org/2000/svg">
<style type="text/css">
	.st0{fill:#F38D9B;}
	.st1{fill:#FFFFFF;}
</style>
<rect id="XMLID_4006_" class="st0" width="113.4" height="113.4"/>
<g id="XMLID_3337_">
	<path id="XMLID_3978_" class="st1" d="m13.7 49.9c0.4-1.2 0.8-2.3 1.8-3.2 2.1-1.7 5.6-1.8 8-0.4 4.4 2.6 6.7 6.5 7.6 11.3 0.6 3.2 0.8 6.5 1 9.7 0.2 2 0.7 2.7 2.7 2.7h43.7c2 0 2.7-0.7 2.7-2.7 0.1-4.3 0.5-8.5 1.8-12.6 1.3-3.8 3.7-6.7 7.2-8.6 2.3-1.3 5.7-1 7.7 0.6 2 1.7 2.4 4.7 0.8 6.8-1.4 1.8-3.3 2.6-5.7 2.2-2.2-0.4-3.7 0.6-4.5 2.7-0.9 2.5-0.8 5-0.6 7.5 0.3 3.2 0.9 6.4 1.4 9.5 0.3 2-2 4.7-4.2 4.8h-3.8v0.8 5c0 1.6-0.8 2.4-2.4 2.4h-1.3c-1.6 0-2.4-0.8-2.4-2.4v-4.8-0.9h-36.8v4.7c0 3-0.4 3.4-3.5 3.4-1.9 0-2.7-0.7-2.7-2.7v-5.5h-2.8c-2.9 0-4.5-1.1-5.2-3.9-0.2-0.6 0.1-1.3 0.2-2 0.7-4 1.4-8.1 1.2-12.2-0.1-1.3-0.3-2.6-0.7-3.8-0.7-2.1-2.3-3.1-4.5-2.6-2.8 0.5-5.9-1.2-6.7-4.3v-1.5z"/>
	<path id="XMLID_3338_" class="st1" d="m88.1 42.4c-1.6 1.3-3.2 2.4-4.6 3.8-3 3-4.5 6.7-5.3 10.8-0.5 3-0.8 6-1.2 9h-40.7c-0.1-1.5-0.2-3.1-0.4-4.6-0.5-4.3-1.3-8.4-3.6-12.2-1.4-2.2-3.2-4-5.3-5.5-0.3-0.2-0.5-0.4-0.9-0.6 1-2.2 2.2-4.2 3.8-6 5.4-6.5 12.5-10.1 20.7-11.5 8.8-1.4 17.2-0.1 25.1 4.1 5.4 2.9 9.6 6.9 12.3 12.5 0 0.1 0.1 0.2 0.1 0.2z"/>
</g>
</svg>
