<?xml version="1.0" encoding="UTF-8"?>
<!-- Generator: Adobe Illustrator 19.0.0, SVG Export Plug-In . SVG Version: 6.00 Build 0)  -->
<svg id="Layer_1" enable-background="new 0 0 113.4 113.4" version="1.1" viewBox="0 0 113.4 113.4" xml:space="preserve" xmlns="http://www.w3.org/2000/svg">
<style type="text/css">
	.st0{fill:#6CCE95;}
	.st1{fill:#FFFFFF;}
</style>
<rect id="XMLID_3334_" class="st0" y=".1" width="113.3" height="113.3"/>
<g id="XMLID_3328_">
	<path id="XMLID_3333_" class="st1" d="m22.4 62.1c3.7-0.6 7.2-2.1 10.4-3.9 4.6-2.7 8.8-6 12.7-9.6 6.6-5.9 16.9-4.8 21.7 2.6 3 4.7 3.3 9.7 0.4 14.4-4.2 6.8-9.1 13.1-15.1 18.4-1.5 1.3-3 2.4-4.9 3.1-0.8 0.3-1.6 0.4-2.4 0-1.5-0.7-3.1-1.2-4.7-1.8 0.6-1.7 1.1-3.3 1.7-4.8s1.4-3 2-4.3c-2.8 1.8-5.9 3.8-8.9 5.8l-0.1-0.1c2.1-3.4 4.3-6.8 6.4-10.2l-0.1-0.1-1.8 1.5c-2.7 2.1-5.5 4-8.6 5.4-0.5 0.2-0.7 0.2-1.1-0.2-1.1-1.2-2.2-2.3-3.4-3.5 1.7-1.9 3.2-3.7 4.7-5.4-1.4 0.4-2.9 0.8-4.4 1.2-0.6 0.2-1.3 0.2-1.9 0.3-0.5 0.1-0.8-0.1-1-0.5-0.8-1.7-1.1-3.5-1.4-5.4 0-0.2-0.1-0.5-0.1-0.7-0.1-0.8-0.1-1.5-0.1-2.2z"/>
	<path id="XMLID_3332_" class="st1" d="m90.9 32.6c-0.5 2.6-2.2 4.3-4.1 5.9-4.7 3.8-9.4 7.8-14 11.7-0.3 0.2-0.5 0.4-0.8 0.7-1.9-3.8-4.7-6.6-8.6-8.5 0.9-1.1 1.8-2.2 2.7-3.2 3.6-4.3 7.1-8.5 10.7-12.8 1.3-1.6 3-2.6 5-3 0.1 0 0.2-0.1 0.2-0.1h2.1c0.1 0 0.3 0.1 0.4 0.1 3 0.7 5 2.5 6.1 5.3 0.1 0.4 0.2 0.7 0.3 1.1v2.8z"/>
	<path id="XMLID_3331_" class="st1" d="m73.1 91.7c-0.2-0.1-0.4-0.1-0.6-0.2-2.1-0.7-3.3-2.6-2.9-4.8 0.3-2 2.2-3.6 4.2-3.5 2.1 0 3.9 1.6 4.2 3.5 0.3 2.2-0.9 4.1-2.9 4.8-0.2 0.1-0.4 0.1-0.6 0.2h-1.4z"/>
	<path id="XMLID_3330_" class="st1" d="m58.4 91.7c-0.9-0.4-1.6-0.9-1.7-2 0-1.1 0.7-2 1.7-2.2s2 0.4 2.4 1.4-0.1 2.1-1 2.6c-0.2 0.1-0.4 0.2-0.5 0.3-0.3-0.1-0.6-0.1-0.9-0.1z"/>
	<path id="XMLID_3329_" class="st1" d="m69.6 81c0 1.2-0.9 2.1-2.1 2.1s-2.2-1-2.1-2.2c0-1.2 1-2.1 2.1-2.1 1.1 0.1 2.1 1 2.1 2.2z"/>
</g>
</svg>
