<?xml version="1.0" encoding="UTF-8"?>
<!-- Generator: Adobe Illustrator 19.0.0, SVG Export Plug-In . SVG Version: 6.00 Build 0)  -->
<svg id="Layer_1" enable-background="new 0 0 113.4 113.4" version="1.1" viewBox="0 0 113.4 113.4" xml:space="preserve" xmlns="http://www.w3.org/2000/svg">
<style type="text/css">
	.st0{fill:#F79C65;}
	.st1{fill:#FFFFFF;}
</style>
<rect id="XMLID_4543_" class="st0" width="113.4" height="113.4"/>
<g id="XMLID_4537_">
	<path id="XMLID_4538_" class="st1" d="m17.1 48v-1.1c0.5-1.2 1.4-1.6 2.6-1.5 2.1 0.1 4.3 0 6.4 0 0.5 0 0.8-0.2 1-0.6 0.9-2.1 1.8-4.1 2.8-6.2 1.4-2.7 3.3-4.9 6.2-6.2 3.5-1.5 7.2-2.4 10.9-2.9 4.8-0.7 9.5-0.8 14.3-0.5 4.5 0.3 9 1 13.3 2.4 3.9 1.3 6.9 3.5 8.7 7.3 1 2 1.9 4 2.8 6 0.2 0.5 0.4 0.7 1 0.6h6.4c1.2 0 2.1 0.4 2.6 1.5v1.1c-0.4 1.6-0.7 3.2-1.1 4.9-0.3 1.5-1 2.1-2.6 2.1h-1.9c0.2 0.3 0.3 0.4 0.4 0.5 4.4 5.5 4 13.2-0.9 18.3-0.2 0.2-0.4 0.7-0.4 1v6.7c0 2-1.2 3.3-3.3 3.3h-6.6c-2.1 0-3.3-1.2-3.3-3.3v-2.8h-39.8v2.8c0 2.1-1.2 3.3-3.3 3.3h-6.6c-2.1 0-3.3-1.2-3.3-3.3v-6.8c0-0.4-0.2-0.8-0.4-1.1-4.4-4.6-5-12.2-1.2-17.5 0.2-0.3 0.4-0.6 0.7-1h-1.7c-1.7 0-2.3-0.5-2.6-2.2-0.3-1.6-0.7-3.2-1.1-4.8zm64 0.5c-0.4-1.8-2.5-6.3-3.6-8-0.6-1-1.4-1.8-2.5-2.3-2.4-1.2-4.9-1.9-7.5-2.4-5.8-1-11.6-1.2-17.4-0.6-3.6 0.4-7.2 1-10.6 2.4-1.8 0.7-3.3 1.8-4.1 3.6-0.8 1.7-1.6 3.4-2.4 5.2-0.3 0.7-0.5 1.4-0.8 2.1h48.9zm4 16.2c0-3.3-2.7-6-6-6s-5.9 2.7-5.9 6 2.7 6 6 6c3.3-0.1 5.9-2.8 5.9-6zm-50.5 5.9c3.3-0.3 5.8-3.1 5.6-6.2-0.2-3.5-3-5.9-6.2-5.7-3.7 0.2-5.9 3.2-5.7 6.2 0.3 3.5 3.1 6 6.3 5.7z"/>
</g>
</svg>
