<?xml version="1.0" encoding="UTF-8"?>
<!-- Generator: Adobe Illustrator 19.0.0, SVG Export Plug-In . SVG Version: 6.00 Build 0)  -->
<svg id="Layer_1" enable-background="new 0 0 113.4 113.4" version="1.1" viewBox="0 0 113.4 113.4" xml:space="preserve" xmlns="http://www.w3.org/2000/svg">
<style type="text/css">
	.st0{fill:#5C84F3;}
	.st1{fill:#FFFFFF;}
</style>
<rect id="XMLID_3374_" class="st0" width="113.4" height="113.4"/>
<g id="XMLID_3361_">
	<path id="XMLID_3363_" class="st1" d="m20.4 73.6v-1.3c0.5-1.3 1.3-2.1 2.7-2.2v-0.7-12.6-4c0-1.9 0.7-3.6 2-4.9l8-8c1.2-1.1 2.6-1.9 4.2-2 2.1-0.1 4.3-0.1 6.4-0.1h0.9v-7.5c0-2.2 1-3.2 3.2-3.2h42c2.2 0 3.2 1 3.2 3.2v21.9 20.4c0 1.7-0.8 2.6-2.5 2.8-1 0.1-1.9 0.1-2.9 0.2-0.1 6.2-5.1 10.2-9.4 10.6-2.6 0.2-5-0.1-7.2-1.6-3.2-2.1-4.9-5.2-5-9h-16.1c0 3-1.1 5.5-3.2 7.6s-4.7 3.1-7.7 3.1c-2.5 0-4.7-0.8-6.7-2.4-2.6-2.2-4-4.9-4-8.4h-1c-1.4 0-2.9 0-4.3-0.1-1.2 0.1-2.1-0.6-2.6-1.8zm24.2-30.4h-6.1c-0.7 0-1.3 0.2-1.8 0.8-2.4 2.5-4.9 4.9-7.4 7.4-0.8 0.8-0.9 1.6-0.8 2.6h16.1v-10.8zm-10.8 32.3c0 2.9 2.5 5.4 5.4 5.4s5.4-2.5 5.4-5.4-2.5-5.4-5.4-5.4c-2.9 0.1-5.4 2.5-5.4 5.4zm43.1-5.3c-2.9 0-5.4 2.5-5.4 5.4s2.5 5.4 5.4 5.4 5.4-2.5 5.4-5.4c-0.1-3-2.5-5.4-5.4-5.4z"/>
</g>
</svg>
