<?xml version="1.0" encoding="UTF-8"?>
<!-- Generator: Adobe Illustrator 19.0.0, SVG Export Plug-In . SVG Version: 6.00 Build 0)  -->
<svg id="Layer_1" enable-background="new 0 0 113.4 113.4" version="1.1" viewBox="0 0 113.4 113.4" xml:space="preserve" xmlns="http://www.w3.org/2000/svg">
<style type="text/css">
	.st0{fill:#F7C45F;}
	.st1{fill:#FFFFFF;}
</style>
<rect id="XMLID_3321_" class="st0" width="113.4" height="113.4"/>
<g id="XMLID_3234_">
	<path id="XMLID_3318_" class="st1" d="m23.7 75.4c0.2-0.8 0.3-1.5 0.5-2.3 2-7.2 9.5-11.5 16.7-9.6 0.5 0.1 0.7 0 1.1-0.3 1.8-1.9 3.7-3.7 5.6-5.6 0.2-0.2 0.3-0.4 0.4-0.5l9.1 9.1-6.1 6.1c-0.3 0.3-0.3 0.5-0.2 0.9 2 7.6-2.5 15.1-10.2 16.9-0.6 0.1-1.2 0.2-1.8 0.4h-2.4c-0.1 0-0.3-0.1-0.4-0.1-5.6-0.7-10.1-4.6-11.6-10-0.2-0.7-0.3-1.5-0.5-2.2-0.2-1-0.2-1.9-0.2-2.8zm13.7 5.8c2.4 0 4.4-2 4.4-4.4s-2-4.4-4.4-4.5c-2.4 0-4.5 2-4.5 4.5 0.1 2.5 2.1 4.4 4.5 4.4z"/>
	<path id="XMLID_3315_" class="st1" d="m89.7 38.7c-0.2 0.9-0.4 1.9-0.6 2.8-2.1 6.5-8.8 10.3-15.4 8.7-0.4-0.1-0.7 0-1 0.3l-6.9 6.9c-0.2 0.2-0.3 0.4-0.6 0.7-3-3.1-6-6.1-9-9.3 0.2-0.1 0.4-0.2 0.6-0.4 2.3-2.3 4.5-4.6 6.8-6.8 0.3-0.3 0.5-0.6 0.3-1.1-1.8-7.4 3.4-14.9 11-15.8 0.1 0 0.3-0.1 0.4-0.1h2.6c0.1 0 0.2 0.1 0.4 0.1 2.1 0.2 3.9 1.1 6 1.9-0.3 0.2-0.5 0.3-0.7 0.5-2 2-4 4-6 5.9-0.3 0.3-0.4 0.5-0.3 1 0.2 0.7 0.2 1.7 0.7 2.2s1.5 0.5 2.2 0.7c0.3 0.1 0.6 0 0.8-0.2 1.6-1.6 3.2-3.1 4.7-4.7l1.8-1.8c0.1 0.3 0.2 0.5 0.3 0.7 0.7 1.8 1.4 3.6 1.7 5.5 0.2 0.7 0.2 1.5 0.2 2.3z"/>
	<path id="XMLID_3314_" class="st1" d="m29.4 24.6 0.6 0.6c2.9 2.3 5.7 4.6 8.6 6.9 0.1 0.1 0.2 0.2 0.4 0.3-0.8 0.7-1.6 1.5-2.3 2.2l30.3 30.3 4.2-4.2c2.2 2.2 4.2 4.2 6.2 6.3l-11.3 11.3-6.1-6.1 4.2-4.2-30.4-30.4c-0.6 0.7-1.4 1.4-2.2 2.3-0.7-0.9-1.3-1.6-1.9-2.3-1.8-2.3-3.7-4.6-5.5-6.9-0.1-0.2-0.3-0.3-0.5-0.4v-0.3c0.1-0.1 0.3-0.1 0.4-0.2l4.8-4.8c0.1-0.1 0.2-0.2 0.2-0.4h0.3z"/>
	<path id="XMLID_3311_" class="st1" d="m80.5 90.5c-0.6-0.2-1.2-0.2-1.8-0.5-1-0.5-2.1-1-2.9-1.8-2.3-2.2-4.5-4.5-6.8-6.8v-0.1l11.5-11.5 0.4 0.4c2 2 4 4.1 6.1 6 1.4 1.4 2.4 3 2.6 5 0 0.1 0.1 0.1 0.1 0.2v1.9c0 0.1-0.1 0.2-0.1 0.3-0.6 3.3-2.5 5.5-5.8 6.6l-1.2 0.3h-2.1z"/>
</g>
</svg>
